PathFileType	4	(X/Y/Z)	D:\TRACE\spotREDO_2-26-24\spot_baseline_1-v60.trc
DataRate	CameraRate	NumFrames	NumMarkers	Units	OrigDataRate	OrigDataStartFrame	OrigNumFrames
100.00	100.00	      14	9	mm	100.00	876	      7000
Frame#	Time	front left toe			Front right toe			aft left toe			aft right toe			Arm			FL body			FR body			AL Body			AR Body			
		X1	Y1	Z1	X2	Y2	Z2	X3	Y3	Z3	X4	Y4	Z4	X5	Y5	Z5	X6	Y6	Z6	X7	Y7	Z7	X8	Y8	Z8	X9	Y9	Z9	

876	8.750	-317.05908	24.80126	-201.71007	254.69997	22.68410	-268.39700	-251.15463	26.93302	336.02231	317.98920	26.90196	267.34964	-24.97547	805.59460	-414.01727	-97.57807	544.22943	-379.25317	57.17427	553.12921	-400.67877	15.15747	558.29565	497.35522	161.45630	562.54144	479.03333	
877	8.760	-317.08771	24.67731	-201.72522	254.44238	22.69661	-268.44522	-251.23166	26.80712	335.97488	317.94934	26.87478	267.32391	-25.49196	805.45380	-413.84213	-98.29160	544.28912	-379.21008	56.55624	553.10010	-400.41034	14.54095	558.26740	497.55569	161.14243	562.55188	479.32504	
878	8.770	-317.06799	24.59818	-201.72795	254.42998	22.70426	-268.44312	-251.28386	26.73199	335.97537	317.94617	26.88887	267.30389	-26.05273	805.34497	-413.76996	-98.74599	544.12390	-379.06485	56.14113	553.07593	-400.29950	14.02746	558.32074	497.71487	160.65779	562.60992	479.48334	
879	8.780	-317.20847	24.60725	-201.72226	254.40395	22.67024	-268.47534	-251.30714	26.75272	335.99103	317.88199	26.89319	267.25082	-26.69443	805.30237	-413.61276	-99.28008	544.03625	-378.77576	55.44337	552.97247	-400.08792	13.39041	558.37811	497.90054	160.01436	562.76068	479.68164	
880	8.790	-317.22400	24.59957	-201.66516	254.45581	22.60163	-268.52972	-251.35068	26.75514	336.00476	317.90738	26.97417	267.25879	-27.06093	805.35913	-413.24319	-100.03294	544.15393	-378.43222	54.76542	552.96503	-399.89078	12.84375	558.45551	498.01123	159.73628	562.74988	479.85513	
881	8.800	-317.26138	24.60439	-201.65326	254.47487	22.70191	-268.56171	-251.35054	26.73383	336.04471	317.87967	27.03731	267.26297	-27.40611	805.44214	-413.04016	-100.43156	544.19397	-378.15787	54.17154	552.91730	-399.76385	12.29274	558.65649	498.16754	159.15414	562.73987	480.03262	
882	8.810	-317.31918	24.56981	-201.63843	254.25708	22.89792	-268.49710	-251.48615	26.74288	336.06616	317.80740	26.99510	267.20132	-27.89550	805.47211	-412.92569	-100.81422	544.18121	-377.91486	53.53954	552.88739	-399.61157	12.06048	558.70648	498.34149	158.52840	562.68439	480.08987	
883	8.820	-317.32413	24.50538	-201.54347	254.23747	22.75767	-268.60843	-251.54779	26.69098	336.03876	317.78210	27.00777	267.20523	-28.25307	805.39679	-412.81024	-101.54086	544.31427	-377.64835	52.95849	552.86920	-399.55438	11.34736	558.73895	498.60217	158.01918	562.67426	480.25763	
884	8.830	-317.31992	24.42072	-201.50294	254.19667	22.94779	-268.52271	-251.52824	26.61971	336.16635	317.76346	27.11784	267.18039	-28.53960	805.36420	-412.64407	-102.04023	544.43164	-377.43762	52.49903	552.75226	-399.42764	10.87108	558.83295	498.81451	157.58986	562.71802	480.39917	
885	8.840	-317.31918	24.37750	-201.47868	254.13530	22.93614	-268.53391	-251.66934	26.55252	336.22458	317.59909	27.12642	267.14575	-28.70758	805.43286	-412.54330	-102.47996	544.56354	-377.30246	51.78761	552.70886	-399.22775	10.34615	558.95392	499.01779	157.81448	562.68860	481.10062	
886	8.850	-317.29919	24.38156	-201.42172	254.20811	22.83750	-268.61618	-251.67828	26.56475	336.26013	317.60822	27.18304	267.17133	-28.87383	805.54120	-412.44818	-103.58177	545.02655	-377.78479	51.17133	552.67291	-398.97369	9.74879	559.22552	498.86002	156.81972	562.62213	480.80078	
887	8.860	-317.34433	24.39169	-201.43219	254.20444	22.91931	-268.59885	-251.98105	26.64190	336.31894	317.62024	27.24353	267.23260	-29.09349	805.57770	-412.23770	-104.18807	545.22198	-377.72366	50.82667	552.66119	-398.74948	9.29992	559.32050	498.89963	156.26718	562.44739	481.02478	
888	8.870	-317.31894	24.27839	-201.34612	254.21165	22.96098	-268.57251	-251.97072	26.57453	336.34000	317.53418	27.23919	267.16043	-29.42544	805.61572	-412.01080	-105.03117	545.38049	-377.62753	50.26015	552.58386	-398.60495	8.72596	559.39886	499.07806	155.99405	562.42731	481.11969	
889	8.880	-317.34384	24.15401	-201.27927	254.08990	22.92420	-268.64059	-251.92998	26.51415	336.41788	317.44080	27.22711	267.16180	-29.66622	805.60907	-411.88403	-105.57452	545.52679	-377.50043	49.59525	552.44916	-398.60101	8.53883	559.34076	499.55334	155.51860	562.43909	481.30246	
